<?xml version="1.0" encoding="utf-8"?>
<!-- Generator: Adobe Illustrator 22.0.1, SVG Export Plug-In . SVG Version: 6.00 Build 0)  -->
<svg version="1.1" id="Layer_1" xmlns="http://www.w3.org/2000/svg" xmlns:xlink="http://www.w3.org/1999/xlink" x="0px" y="0px"
	 viewBox="0 0 351.7 351.7" style="enable-background:new 0 0 351.7 351.7;" xml:space="preserve">
<style type="text/css">
	.st0{fill-opacity:0;stroke:#000000;stroke-width:0.24;}
</style>
<path d="M345.9,134.3v32.1l-12.8-25.6L345.9,134.3z"/>
<path d="M342.4,8.2L328,37l-7.3-3.6l-3.9-11.7L305,25.5l-7.3-3.6l-1.1-0.6l7.7-15.5h36.8L342.4,8.2z"/>
<path d="M47.4,175.9l6.8,13.6l-7.6,3.8L33.6,189l-4.3,12.9l-4.6,2.3l-14.2-28.3l-1.2-2.4l14.4-28.8l7.3,3.6l3.9,11.7l11.7-3.9
	l8.4,4.2L47.4,175.9z"/>
<path d="M345.9,304.4v32.1l-12.8-25.6L345.9,304.4z"/>
<path d="M19.4,212.5l3.8,7.6l-4.3,12.9l12.9,4.3l2.3,4.6L5.8,256.2v-36.8L19.4,212.5z"/>
<path d="M229.7,328l3.6-7.3l11.7-3.9l-3.9-11.7l4.2-8.4l15.5,7.7l13.6-6.8l3.8,7.6l-4.3,12.9l12.9,4.3l2.3,4.6l-30.7,15.3L229.7,328
	z"/>
<path d="M217.4,175.9l6.8,13.6l-7.6,3.8l-12.9-4.3l-4.3,12.9l-4.6,2.3l-14.2-28.3l-1.2-2.4l14.4-28.8l7.3,3.6l3.9,11.7l11.7-3.9
	l8.4,4.2L217.4,175.9z"/>
<path d="M105.6,56.6L92,83.7l-14-28l12.8-6.4L105.6,56.6z"/>
<path d="M323.2,310l-7.7,3.9l-2.7,8.2l-8.2-2.7l-7.7,3.9l-3.9-7.7l-8.2-2.7l2.7-8.2l-3.9-7.7l7.7-3.9l2.7-8.2l8.2,2.7l7.7-3.9
	l3.9,7.7l8.2,2.7l-2.7,8.2L323.2,310z"/>
<path d="M242.9,122l-7.3-3.6l-3.9-11.7l-11.7,3.9l-7.3-3.6l-1.1-0.6l7.7-15.5l-6.8-13.6l3-1.5l4.6-2.3l12.9,4.3l4.3-12.9l4.6-2.3
	l15.3,30.7L242.9,122z"/>
<path d="M246.2,125L259.7,98l14,28l-12.8,6.4L246.2,125z"/>
<path d="M224.2,19.4l-7.6,3.8l-12.9-4.3l-4.3,12.9l-4.6,2.3L180.6,5.8h36.8L224.2,19.4z"/>
<path d="M175.9,302.5l-13.6,6.8l-1.5-3l-2.3-4.6l4.3-12.9l-12.9-4.3l-2.3-4.6l28.3-14.2l2.4-1.2l28.8,14.4l-3.6,7.3l-11.7,3.9
	l3.9,11.7l-3.6,7.3l-0.6,1.1L175.9,302.5z"/>
<path d="M153.2,140l-7.7,3.9l-2.7,8.2l-8.2-2.7l-7.7,3.9l-3.9-7.7l-8.2-2.7l2.7-8.2l-3.9-7.7l7.7-3.9l2.7-8.2l8.2,2.7l7.7-3.9
	l3.9,7.7l8.2,2.7l-2.7,8.2L153.2,140z"/>
<path d="M276.4,55.1l-15.5-7.7l-13.6,6.8l-1.5-3l-2.3-4.6l4.3-12.9l-12.9-4.3l-2.3-4.6l30.7-15.3l28.8,14.4l-3.6,7.3l-11.7,3.9
	l3.9,11.7L277,54L276.4,55.1z"/>
<path d="M175.9,134.3l14.7,7.4l-13.5,27.1l-1.2-2.4L163,140.7L175.9,134.3z"/>
<path d="M211.8,68.1l-3.9-7.7l-8.2-2.7l2.7-8.2l-3.9-7.7l7.7-3.9l2.7-8.2l8.2,2.7l7.7-3.9l3.9,7.7l8.2,2.7l-2.7,8.2l3.9,7.7
	l-7.7,3.9l-2.7,8.2l-8.2-2.7L211.8,68.1z"/>
<path d="M132.4,345.9h-32.1l25.6-12.8L132.4,345.9z"/>
<path d="M55.9,326.1l-8.8-4.4l-9.4,3.1l-3.1-9.4l-8.8-4.4l4.4-8.8l-3.1-9.4l9.4-3.1l4.4-8.8l8.8,4.4l9.4-3.1l3.1,9.4l8.8,4.4
	l-4.4,8.8l3.1,9.4l-9.4,3.1L55.9,326.1z"/>
<path d="M140.7,273.7l-6.4-12.8l7.4-14.7l27.1,13.5L140.7,273.7z"/>
<path d="M41.7,238.2l-3.9-7.7l-8.2-2.7l2.7-8.2l-3.9-7.7l7.7-3.9l2.7-8.2l8.2,2.7l7.7-3.9l3.9,7.7l8.2,2.7l-2.7,8.2l3.9,7.7
	l-7.7,3.9l-2.7,8.2l-8.2-2.7L41.7,238.2z"/>
<path d="M153.2,310l-7.7,3.9l-2.7,8.2l-8.2-2.7l-7.7,3.9l-3.9-7.7l-8.2-2.7l2.7-8.2l-3.9-7.7l7.7-3.9l2.7-8.2l8.2,2.7l7.7-3.9
	l3.9,7.7l8.2,2.7l-2.7,8.2L153.2,310z"/>
<path d="M345.9,132.4l-13.6,6.8l-1.5-3l-2.3-4.6l4.3-12.9l-12.9-4.3l-2.3-4.6l28.3-14.2V132.4z"/>
<path d="M172.3,8.2L157.9,37l-7.3-3.6l-3.9-11.7L135,25.5l-7.3-3.6l-1.1-0.6l7.7-15.5h36.8L172.3,8.2z"/>
<path d="M19.4,42.5l3.8,7.6L18.9,63l12.9,4.3l2.3,4.6L5.8,86.1V49.3L19.4,42.5z"/>
<path d="M40.9,78l6.4,12.8L40,105.6L12.9,92L40.9,78z"/>
<path d="M59.7,328l3.6-7.3l11.7-3.9L71.1,305l4.2-8.4l15.5,7.7l13.6-6.8l3.8,7.6l-4.3,12.9l12.9,4.3l2.3,4.6l-30.7,15.3L59.7,328z"
	/>
<path d="M345.9,47.4L331.2,40l13.5-27.1l1.2,2.4V47.4z"/>
<path d="M302.5,175.9l-7.4,14.7L268,177.1l2.4-1.2l25.6-12.8L302.5,175.9z"/>
<path d="M76.1,125L89.6,98l14,28l-12.8,6.4L76.1,125z"/>
<path d="M242.9,292.1l-7.3-3.6l-3.9-11.7l-11.7,3.9l-7.3-3.6l-1.1-0.6l7.7-15.5l-6.8-13.6l3-1.5l4.6-2.3l12.9,4.3l4.3-12.9l4.6-2.3
	l15.3,30.7L242.9,292.1z"/>
<path d="M275.6,226.7l-13.5,27.1l-14-28l12.8-6.4L275.6,226.7z"/>
<path d="M8.2,264.5L37,278.9l-3.6,7.3l-11.7,3.9l3.9,11.7l-3.6,7.3l-0.6,1.1l-15.5-7.7v-36.8L8.2,264.5z"/>
<path d="M304.4,345.9l-6.8-13.6l7.6-3.8l12.9,4.3l4.3-12.9l4.6-2.3l14.2,28.3H304.4z"/>
<path d="M304.4,175.9l-6.8-13.6l7.6-3.8l12.9,4.3l4.3-12.9l4.6-2.3l14.2,28.3l1.2,2.4L328,207l-7.3-3.6l-3.9-11.7l-11.7,3.9
	l-7.3-3.6l-1.1-0.6L304.4,175.9z"/>
<path d="M229.7,157.9l3.6-7.3l11.7-3.9l-3.9-11.7l4.2-8.4l15.5,7.7l13.6-6.8l3.8,7.6l-4.3,12.9l12.9,4.3l2.3,4.6l-30.7,15.3
	L229.7,157.9z"/>
<path d="M55.9,156l-8.8-4.4l-9.4,3.1l-3.1-9.4l-8.8-4.4l4.4-8.8l-3.1-9.4l9.4-3.1l4.4-8.8l8.8,4.4L59,112l3.1,9.4l8.8,4.4l-4.4,8.8
	l3.1,9.4l-9.4,3.1L55.9,156z"/>
<path d="M280.8,55.9l4.4-8.8l-3.1-9.4l9.4-3.1l4.4-8.8l8.8,4.4l9.4-3.1l3.1,9.4l8.8,4.4l-4.4,8.8l3.1,9.4l-9.4,3.1L311,71l-8.8-4.4
	l-9.4,3.1l-3.1-9.4L280.8,55.9z"/>
<path d="M106.3,55.1l-15.5-7.7l-13.6,6.8l-1.5-3l-2.3-4.6l4.3-12.9l-12.9-4.3l-2.3-4.6L93.2,9.4L122,23.7l-3.6,7.3l-11.7,3.9
	l3.9,11.7l-3.6,7.3L106.3,55.1z"/>
<path d="M345.9,219.3v36.8l-2.4,1.2l-28.8-14.4l3.6-7.3l11.7-3.9l-3.9-11.7l4.2-8.4L345.9,219.3z"/>
<path d="M136.1,276l-4.6,2.3l-12.9-4.3l-4.3,12.9l-4.6,2.3l-15.3-30.7l14.4-28.8l7.3,3.6l3.9,11.7l11.7-3.9l8.4,4.2l-7.7,15.5
	l6.8,13.6L136.1,276z"/>
<path d="M132.4,175.9l-7.4,14.7L98,177.1l2.4-1.2L126,163L132.4,175.9z"/>
<path d="M40.9,248.1l6.4,12.8L40,275.6l-27.1-13.5L40.9,248.1z"/>
<path d="M310.8,103.7l-6.4-12.8l7.4-14.7l27.1,13.5L310.8,103.7z"/>
<path d="M225.9,156l-8.8-4.4l-9.4,3.1l-3.1-9.4l-8.8-4.4l4.4-8.8l-3.1-9.4l9.4-3.1l4.4-8.8l8.8,4.4l9.4-3.1l3.1,9.4l8.8,4.4
	l-4.4,8.8l3.1,9.4l-9.4,3.1L225.9,156z"/>
<path d="M49.3,175.9l7.4-14.7l27.1,13.5l-2.4,1.2l-25.6,12.8L49.3,175.9z"/>
<path d="M211,78l6.4,12.8l-7.4,14.7L183,92L211,78z"/>
<path d="M211,248.1l6.4,12.8l-7.4,14.7L183,262.1L211,248.1z"/>
<path d="M302.5,345.9h-32.1l25.6-12.8L302.5,345.9z"/>
<path d="M110.7,55.9l4.4-8.8l-3.1-9.4l9.4-3.1l4.4-8.8l8.8,4.4l9.4-3.1l3.1,9.4l8.8,4.4l-4.4,8.8l3.1,9.4l-9.4,3.1l-4.4,8.8
	l-8.8-4.4l-9.4,3.1l-3.1-9.4L110.7,55.9z"/>
<path d="M175.9,47.4L161.1,40l13.5-27.1l1.2,2.4l12.8,25.6L175.9,47.4z"/>
<path d="M105.6,226.7L92,253.8l-14-28l12.8-6.4L105.6,226.7z"/>
<path d="M140.7,103.7l-6.4-12.8l7.4-14.7l27.1,13.5L140.7,103.7z"/>
<path d="M219.3,345.9l7.4-14.7l27.1,13.5l-2.4,1.2H219.3z"/>
<path d="M136.1,105.9l-4.6,2.3l-12.9-4.3l-4.3,12.9l-4.6,2.3L94.4,88.5l14.4-28.8l7.3,3.6l3.9,11.7l11.7-3.9l8.4,4.2l-7.7,15.5
	l6.8,13.6L136.1,105.9z"/>
<path d="M175.9,217.4l-14.7-7.4l13.5-27.1l1.2,2.4l12.8,25.6L175.9,217.4z"/>
<path d="M175.9,219.3l13.6-6.8l3.8,7.6l-4.3,12.9l12.9,4.3l2.3,4.6l-28.3,14.2l-2.4,1.2l-28.8-14.4l3.6-7.3l11.7-3.9l-3.9-11.7
	l4.2-8.4L175.9,219.3z"/>
<path d="M225.9,326.1l-8.8-4.4l-9.4,3.1l-3.1-9.4l-8.8-4.4l4.4-8.8l-3.1-9.4l9.4-3.1l4.4-8.8l8.8,4.4l9.4-3.1l3.1,9.4l8.8,4.4
	l-4.4,8.8l3.1,9.4l-9.4,3.1L225.9,326.1z"/>
<path d="M310.8,273.7l-6.4-12.8l7.4-14.7l27.1,13.5L310.8,273.7z"/>
<path d="M20.5,141.7L7,168.7l-1.2-2.4v-32.1L20.5,141.7z"/>
<path d="M106.3,225.2l-15.5-7.7l-13.6,6.8l-1.5-3l-2.3-4.6l4.3-12.9l-12.9-4.3l-2.3-4.6l30.7-15.3l28.8,14.4l-3.6,7.3l-11.7,3.9
	l3.9,11.7l-3.6,7.3L106.3,225.2z"/>
<path d="M110.7,225.9l4.4-8.8l-3.1-9.4l9.4-3.1l4.4-8.8l8.8,4.4l9.4-3.1l3.1,9.4l8.8,4.4l-4.4,8.8l3.1,9.4l-9.4,3.1l-4.4,8.8
	l-8.8-4.4l-9.4,3.1l-3.1-9.4L110.7,225.9z"/>
<path d="M306.2,276l-4.6,2.3l-12.9-4.3l-4.3,12.9l-4.6,2.3l-15.3-30.7l14.4-28.8l7.3,3.6l3.9,11.7l11.7-3.9l8.4,4.2l-7.7,15.5
	l6.8,13.6L306.2,276z"/>
<path d="M20.5,311.7L7,338.8l-1.2-2.4v-32.1L20.5,311.7z"/>
<path d="M134.3,175.9l-6.8-13.6l7.6-3.8l12.9,4.3l4.3-12.9l4.6-2.3l14.2,28.3l1.2,2.4L157.9,207l-7.3-3.6l-3.9-11.7l-11.7,3.9
	l-7.3-3.6l-1.1-0.6L134.3,175.9z"/>
<path d="M76.1,295.1L89.6,268l14,28l-12.8,6.4L76.1,295.1z"/>
<path d="M295.1,20.5L268,7l2.4-1.2h32.1L295.1,20.5z"/>
<path d="M306.2,105.9l-4.6,2.3l-12.9-4.3l-4.3,12.9l-4.6,2.3l-15.3-30.7l14.4-28.8l7.3,3.6l3.9,11.7l11.7-3.9l8.4,4.2l-7.7,15.5
	l6.8,13.6L306.2,105.9z"/>
<path d="M276.4,225.2l-15.5-7.7l-13.6,6.8l-1.5-3l-2.3-4.6l4.3-12.9l-12.9-4.3l-2.3-4.6l30.7-15.3l28.8,14.4l-3.6,7.3l-11.7,3.9
	l3.9,11.7L277,224L276.4,225.2z"/>
<path d="M246.2,295.1l13.5-27.1l14,28l-12.8,6.4L246.2,295.1z"/>
<path d="M280.8,225.9l4.4-8.8l-3.1-9.4l9.4-3.1l4.4-8.8l8.8,4.4l9.4-3.1l3.1,9.4l8.8,4.4l-4.4,8.8l3.1,9.4l-9.4,3.1L311,241
	l-8.8-4.4l-9.4,3.1l-3.1-9.4L280.8,225.9z"/>
<path d="M211.8,238.2l-3.9-7.7l-8.2-2.7l2.7-8.2l-3.9-7.7l7.7-3.9l2.7-8.2l8.2,2.7l7.7-3.9l3.9,7.7l8.2,2.7l-2.7,8.2l3.9,7.7
	l-7.7,3.9l-2.7,8.2l-8.2-2.7L211.8,238.2z"/>
<path d="M72.9,292.1l-7.3-3.6l-3.9-11.7l-11.7,3.9l-7.3-3.6l-1.1-0.6l7.7-15.5l-6.8-13.6l3-1.5l4.6-2.3l12.9,4.3l4.3-12.9l4.6-2.3
	l15.3,30.7L72.9,292.1z"/>
<path d="M47.4,345.9H10.5l-1.2-2.4l14.4-28.8l7.3,3.6l3.9,11.7l11.7-3.9l8.4,4.2L47.4,345.9z"/>
<path d="M175.9,49.3l13.6-6.8l3.8,7.6L189,63l12.9,4.3l2.3,4.6l-28.3,14.2l-2.4,1.2l-28.8-14.4l3.6-7.3l11.7-3.9l-3.9-11.7l4.2-8.4
	L175.9,49.3z"/>
<path d="M175.9,304.4l14.7,7.4l-13.5,27.1l-1.2-2.4L163,310.8L175.9,304.4z"/>
<path d="M175.9,132.4l-13.6,6.8l-1.5-3l-2.3-4.6l4.3-12.9l-12.9-4.3l-2.3-4.6l28.3-14.2l2.4-1.2l28.8,14.4l-3.6,7.3l-11.7,3.9
	l3.9,11.7l-3.6,7.3l-0.6,1.1L175.9,132.4z"/>
<path d="M125,20.5L98,7l2.4-1.2h32.1L125,20.5z"/>
<path d="M217.4,345.9h-36.8l-1.2-2.4l14.4-28.8l7.3,3.6l3.9,11.7l11.7-3.9l8.4,4.2L217.4,345.9z"/>
<path d="M323.2,140l-7.7,3.9l-2.7,8.2l-8.2-2.7l-7.7,3.9l-3.9-7.7l-8.2-2.7l2.7-8.2l-3.9-7.7l7.7-3.9l2.7-8.2l8.2,2.7l7.7-3.9
	l3.9,7.7l8.2,2.7l-2.7,8.2L323.2,140z"/>
<path d="M345.9,302.5l-13.6,6.8l-1.5-3l-2.3-4.6l4.3-12.9l-12.9-4.3l-2.3-4.6l28.3-14.2V302.5z"/>
<path d="M18.6,40.9L5.8,47.4V15.3L18.6,40.9z"/>
<path d="M8.2,94.4L37,108.8l-3.6,7.3L21.6,120l3.9,11.7l-3.6,7.3l-0.6,1.1l-15.5-7.7V95.6L8.2,94.4z"/>
<path d="M59.7,157.9l3.6-7.3l11.7-3.9L71.1,135l4.2-8.4l15.5,7.7l13.6-6.8l3.8,7.6l-4.3,12.9l12.9,4.3l2.3,4.6l-30.7,15.3
	L59.7,157.9z"/>
<path d="M134.3,345.9l-6.8-13.6l7.6-3.8l12.9,4.3l4.3-12.9l4.6-2.3l14.2,28.3H134.3z"/>
<path d="M72.9,122l-7.3-3.6l-3.9-11.7l-11.7,3.9l-7.3-3.6l-1.1-0.6l7.7-15.5l-6.8-13.6l3-1.5l4.6-2.3L63,77.7l4.3-12.9l4.6-2.3
	l15.3,30.7L72.9,122z"/>
<path d="M49.3,5.8h32.1L55.7,18.6L49.3,5.8z"/>
<path d="M18.6,211l-12.8,6.4v-32.1L18.6,211z"/>
<path d="M41.7,68.1l-3.9-7.7l-8.2-2.7l2.7-8.2l-3.9-7.7l7.7-3.9l2.7-8.2l8.2,2.7l7.7-3.9l3.9,7.7L67,39l-2.7,8.2l3.9,7.7l-7.7,3.9
	L57.6,67l-8.2-2.7L41.7,68.1z"/>
<path d="M219.3,5.8h32.1l-25.6,12.8L219.3,5.8z"/>
<path d="M219.3,175.9l7.4-14.7l27.1,13.5l-2.4,1.2l-25.6,12.8L219.3,175.9z"/>
<path d="M275.6,56.6l-13.5,27.1l-14-28l12.8-6.4L275.6,56.6z"/>
<path d="M49.3,345.9l7.4-14.7l27.1,13.5l-2.4,1.2H49.3z"/>
<path d="M345.9,49.3v36.8l-2.4,1.2l-28.8-14.4l3.6-7.3l11.7-3.9l-3.9-11.7l4.2-8.4L345.9,49.3z"/>
<path d="M345.9,185.4v32.1l-14.7-7.4l13.5-27.1L345.9,185.4z"/>
<path d="M54.2,19.4l-7.6,3.8l-12.9-4.3l-4.3,12.9l-4.6,2.3L10.5,5.8h36.8L54.2,19.4z"/>
<path class="st0" d="M323.2,310l-7.7,3.9l-2.7,8.2l-8.2-2.7l-7.7,3.9l-3.9-7.7l-8.2-2.7l2.7-8.2l-3.9-7.7l7.7-3.9l2.7-8.2l8.2,2.7
	l7.7-3.9l3.9,7.7l8.2,2.7l-2.7,8.2L323.2,310z"/>
<path class="st0" d="M345.9,302.5v-36.8l-28.3,14.2l2.3,4.6l12.9,4.3l-4.3,12.9l2.3,4.6l1.5,3L345.9,302.5z"/>
<path class="st0" d="M136.1,105.9l-4.6,2.3l-12.9-4.3l-4.3,12.9l-4.6,2.3L94.4,88.5l14.4-28.8l7.3,3.6l3.9,11.7l11.7-3.9l8.4,4.2
	l-7.7,15.5l6.8,13.6L136.1,105.9z"/>
<path class="st0" d="M306.2,276l-4.6,2.3l-12.9-4.3l-4.3,12.9l-4.6,2.3l-15.3-30.7l14.4-28.8l7.3,3.6l3.9,11.7l11.7-3.9l8.4,4.2
	l-7.7,15.5l6.8,13.6L306.2,276z"/>
<path class="st0" d="M310.8,273.7l-6.4-12.8l7.4-14.7l27.1,13.5L310.8,273.7z"/>
<path class="st0" d="M140.7,103.7l-6.4-12.8l7.4-14.7l27.1,13.5L140.7,103.7z"/>
<path class="st0" d="M246.2,295.1l13.5-27.1l14,28l-12.8,6.4L246.2,295.1z"/>
<path class="st0" d="M242.9,292.1l-7.3-3.6l-3.9-11.7l-11.7,3.9l-7.3-3.6l-1.1-0.6l7.7-15.5l-6.8-13.6l3-1.5l4.6-2.3l12.9,4.3
	l4.3-12.9l4.6-2.3l15.3,30.7L242.9,292.1z"/>
<path class="st0" d="M323.2,140l-7.7,3.9l-2.7,8.2l-8.2-2.7l-7.7,3.9l-3.9-7.7l-8.2-2.7l2.7-8.2l-3.9-7.7l7.7-3.9l2.7-8.2l8.2,2.7
	l7.7-3.9l3.9,7.7l8.2,2.7l-2.7,8.2L323.2,140z"/>
<path class="st0" d="M76.1,125L89.6,98l14,28l-12.8,6.4L76.1,125z"/>
<path class="st0" d="M211,248.1l6.4,12.8l-7.4,14.7L183,262.1L211,248.1z"/>
<path class="st0" d="M72.9,122l-7.3-3.6l-3.9-11.7l-11.7,3.9l-7.3-3.6l-1.1-0.6l7.7-15.5l-6.8-13.6l3-1.5l4.6-2.3L63,77.7l4.3-12.9
	l4.6-2.3l15.3,30.7L72.9,122z"/>
<path class="st0" d="M134.3,345.9h36.8L157,317.6l-4.6,2.3l-4.3,12.9l-12.9-4.3l-7.6,3.8L134.3,345.9z"/>
<path class="st0" d="M306.2,105.9l-4.6,2.3l-12.9-4.3l-4.3,12.9l-4.6,2.3l-15.3-30.7l14.4-28.8l7.3,3.6l3.9,11.7l11.7-3.9l8.4,4.2
	l-7.7,15.5l6.8,13.6L306.2,105.9z"/>
<path class="st0" d="M55.9,156l-8.8-4.4l-9.4,3.1l-3.1-9.4l-8.8-4.4l4.4-8.8l-3.1-9.4l9.4-3.1l4.4-8.8l8.8,4.4L59,112l3.1,9.4
	l8.8,4.4l-4.4,8.8l3.1,9.4l-9.4,3.1L55.9,156z"/>
<path class="st0" d="M275.6,226.7l-13.5,27.1l-14-28l12.8-6.4L275.6,226.7z"/>
<path class="st0" d="M280.8,225.9l4.4-8.8l-3.1-9.4l9.4-3.1l4.4-8.8l8.8,4.4l9.4-3.1l3.1,9.4l8.8,4.4l-4.4,8.8l3.1,9.4l-9.4,3.1
	L311,241l-8.8-4.4l-9.4,3.1l-3.1-9.4L280.8,225.9z"/>
<path class="st0" d="M8.2,94.4L37,108.8l-3.6,7.3L21.6,120l3.9,11.7l-3.6,7.3l-0.6,1.1l-15.5-7.7V95.6L8.2,94.4z"/>
<path class="st0" d="M134.3,175.9l-6.8-13.6l7.6-3.8l12.9,4.3l4.3-12.9l4.6-2.3l14.2,28.3l1.2,2.4L157.9,207l-7.3-3.6l-3.9-11.7
	l-11.7,3.9l-7.3-3.6l-1.1-0.6L134.3,175.9z"/>
<path class="st0" d="M304.4,175.9l-6.8-13.6l7.6-3.8l12.9,4.3l4.3-12.9l4.6-2.3l14.2,28.3l1.2,2.4L328,207l-7.3-3.6l-3.9-11.7
	l-11.7,3.9l-7.3-3.6l-1.1-0.6L304.4,175.9z"/>
<path class="st0" d="M310.8,103.7l-6.4-12.8l7.4-14.7l27.1,13.5L310.8,103.7z"/>
<path class="st0" d="M20.5,141.7L7,168.7l-1.2-2.4v-32.1L20.5,141.7z"/>
<path class="st0" d="M175.9,132.4l-13.6,6.8l-1.5-3l-2.3-4.6l4.3-12.9l-12.9-4.3l-2.3-4.6l28.3-14.2l2.4-1.2l28.8,14.4l-3.6,7.3
	l-11.7,3.9l3.9,11.7l-3.6,7.3l-0.6,1.1L175.9,132.4z"/>
<path class="st0" d="M40.9,78l6.4,12.8L40,105.6L12.9,92L40.9,78z"/>
<path class="st0" d="M132.4,175.9l-7.4,14.7L98,177.1l2.4-1.2L126,163L132.4,175.9z"/>
<path class="st0" d="M49.3,175.9l7.4-14.7l27.1,13.5l-2.4,1.2l-25.6,12.8L49.3,175.9z"/>
<path class="st0" d="M345.9,132.4V95.6l-28.3,14.2l2.3,4.6l12.9,4.3l-4.3,12.9l2.3,4.6l1.5,3L345.9,132.4z"/>
<path class="st0" d="M246.2,125L259.7,98l14,28l-12.8,6.4L246.2,125z"/>
<path class="st0" d="M19.4,42.5l3.8,7.6L18.9,63l12.9,4.3l2.3,4.6L5.8,86.1V49.3L19.4,42.5z"/>
<path class="st0" d="M175.9,302.5l-13.6,6.8l-1.5-3l-2.3-4.6l4.3-12.9l-12.9-4.3l-2.3-4.6l28.3-14.2l2.4-1.2l28.8,14.4l-3.6,7.3
	l-11.7,3.9l3.9,11.7l-3.6,7.3l-0.6,1.1L175.9,302.5z"/>
<path class="st0" d="M302.5,175.9l-7.4,14.7L268,177.1l2.4-1.2l25.6-12.8L302.5,175.9z"/>
<path class="st0" d="M41.7,68.1l-3.9-7.7l-8.2-2.7l2.7-8.2l-3.9-7.7l7.7-3.9l2.7-8.2l8.2,2.7l7.7-3.9l3.9,7.7L67,39l-2.7,8.2
	l3.9,7.7l-7.7,3.9L57.6,67l-8.2-2.7L41.7,68.1z"/>
<path class="st0" d="M219.3,175.9l7.4-14.7l27.1,13.5l-2.4,1.2l-25.6,12.8L219.3,175.9z"/>
<path class="st0" d="M47.4,175.9l6.8,13.6l-7.6,3.8L33.6,189l-4.3,12.9l-4.6,2.3l-14.2-28.3l-1.2-2.4l14.4-28.8l7.3,3.6l3.9,11.7
	l11.7-3.9l8.4,4.2L47.4,175.9z"/>
<path class="st0" d="M217.4,175.9l6.8,13.6l-7.6,3.8l-12.9-4.3l-4.3,12.9l-4.6,2.3l-14.2-28.3l-1.2-2.4l14.4-28.8l7.3,3.6l3.9,11.7
	l11.7-3.9l8.4,4.2L217.4,175.9z"/>
<path class="st0" d="M242.9,122l-7.3-3.6l-3.9-11.7l-11.7,3.9l-7.3-3.6l-1.1-0.6l7.7-15.5l-6.8-13.6l3-1.5l4.6-2.3l12.9,4.3
	l4.3-12.9l4.6-2.3l15.3,30.7L242.9,122z"/>
<path class="st0" d="M54.2,19.4l-7.6,3.8l-12.9-4.3l-4.3,12.9l-4.6,2.3L10.5,5.8h36.8L54.2,19.4z"/>
<path class="st0" d="M175.9,49.3l13.6-6.8l3.8,7.6L189,63l12.9,4.3l2.3,4.6l-28.3,14.2l-2.4,1.2l-28.8-14.4l3.6-7.3l11.7-3.9
	l-3.9-11.7l4.2-8.4L175.9,49.3z"/>
<path class="st0" d="M175.9,219.3l13.6-6.8l3.8,7.6l-4.3,12.9l12.9,4.3l2.3,4.6l-28.3,14.2l-2.4,1.2l-28.8-14.4l3.6-7.3l11.7-3.9
	l-3.9-11.7l4.2-8.4L175.9,219.3z"/>
<path class="st0" d="M18.6,40.9L5.8,47.4V15.3L18.6,40.9z"/>
<path class="st0" d="M175.9,134.3l14.7,7.4l-13.5,27.1l-1.2-2.4L163,140.7L175.9,134.3z"/>
<path class="st0" d="M175.9,304.4l14.7,7.4l-13.5,27.1l-1.2-2.4L163,310.8L175.9,304.4z"/>
<path class="st0" d="M219.3,345.9h32.1l2.4-1.2l-27.1-13.5L219.3,345.9z"/>
<path class="st0" d="M345.9,47.4V15.3l-1.2-2.4L331.2,40L345.9,47.4z"/>
<path class="st0" d="M345.9,219.3l-15.5-7.7l-4.2,8.4l3.9,11.7l-11.7,3.9l-3.6,7.3l28.8,14.4l2.4-1.2V219.3z"/>
<path class="st0" d="M225.9,156l-8.8-4.4l-9.4,3.1l-3.1-9.4l-8.8-4.4l4.4-8.8l-3.1-9.4l9.4-3.1l4.4-8.8l8.8,4.4l9.4-3.1l3.1,9.4
	l8.8,4.4l-4.4,8.8l3.1,9.4l-9.4,3.1L225.9,156z"/>
<path class="st0" d="M49.3,5.8h32.1L55.7,18.6L49.3,5.8z"/>
<path class="st0" d="M175.9,47.4L161.1,40l13.5-27.1l1.2,2.4l12.8,25.6L175.9,47.4z"/>
<path class="st0" d="M175.9,217.4l-14.7-7.4l13.5-27.1l1.2,2.4l12.8,25.6L175.9,217.4z"/>
<path class="st0" d="M106.3,55.1l-15.5-7.7l-13.6,6.8l-1.5-3l-2.3-4.6l4.3-12.9l-12.9-4.3l-2.3-4.6L93.2,9.4L122,23.7l-3.6,7.3
	l-11.7,3.9l3.9,11.7l-3.6,7.3L106.3,55.1z"/>
<path class="st0" d="M345.9,49.3l-15.5-7.7l-4.2,8.4l3.9,11.7l-11.7,3.9l-3.6,7.3l28.8,14.4l2.4-1.2V49.3z"/>
<path class="st0" d="M211,78l6.4,12.8l-7.4,14.7L183,92L211,78z"/>
<path class="st0" d="M105.6,56.6L92,83.7l-14-28l12.8-6.4L105.6,56.6z"/>
<path class="st0" d="M276.4,225.2l-15.5-7.7l-13.6,6.8l-1.5-3l-2.3-4.6l4.3-12.9l-12.9-4.3l-2.3-4.6l30.7-15.3l28.8,14.4l-3.6,7.3
	l-11.7,3.9l3.9,11.7L277,224L276.4,225.2z"/>
<path class="st0" d="M110.7,55.9l4.4-8.8l-3.1-9.4l9.4-3.1l4.4-8.8l8.8,4.4l9.4-3.1l3.1,9.4l8.8,4.4l-4.4,8.8l3.1,9.4l-9.4,3.1
	l-4.4,8.8l-8.8-4.4l-9.4,3.1l-3.1-9.4L110.7,55.9z"/>
<path class="st0" d="M211.8,238.2l-3.9-7.7l-8.2-2.7l2.7-8.2l-3.9-7.7l7.7-3.9l2.7-8.2l8.2,2.7l7.7-3.9l3.9,7.7l8.2,2.7l-2.7,8.2
	l3.9,7.7l-7.7,3.9l-2.7,8.2l-8.2-2.7L211.8,238.2z"/>
<path class="st0" d="M345.9,304.4l-12.8,6.4l12.8,25.6V304.4z"/>
<path class="st0" d="M211.8,68.1l-3.9-7.7l-8.2-2.7l2.7-8.2l-3.9-7.7l7.7-3.9l2.7-8.2l8.2,2.7l7.7-3.9l3.9,7.7l8.2,2.7l-2.7,8.2
	l3.9,7.7l-7.7,3.9l-2.7,8.2l-8.2-2.7L211.8,68.1z"/>
<path class="st0" d="M125,20.5L98,7l2.4-1.2h32.1L125,20.5z"/>
<path class="st0" d="M225.9,326.1l-8.8-4.4l-9.4,3.1l-3.1-9.4l-8.8-4.4l4.4-8.8l-3.1-9.4l9.4-3.1l4.4-8.8l8.8,4.4l9.4-3.1l3.1,9.4
	l8.8,4.4l-4.4,8.8l3.1,9.4l-9.4,3.1L225.9,326.1z"/>
<path class="st0" d="M172.3,8.2L157.9,37l-7.3-3.6l-3.9-11.7L135,25.5l-7.3-3.6l-1.1-0.6l7.7-15.5h36.8L172.3,8.2z"/>
<path class="st0" d="M224.2,19.4l-7.6,3.8l-12.9-4.3l-4.3,12.9l-4.6,2.3L180.6,5.8h36.8L224.2,19.4z"/>
<path class="st0" d="M59.7,328l3.6-7.3l11.7-3.9L71.1,305l4.2-8.4l15.5,7.7l13.6-6.8l3.8,7.6l-4.3,12.9l12.9,4.3l2.3,4.6l-30.7,15.3
	L59.7,328z"/>
<path class="st0" d="M153.2,310l-7.7,3.9l-2.7,8.2l-8.2-2.7l-7.7,3.9l-3.9-7.7l-8.2-2.7l2.7-8.2l-3.9-7.7l7.7-3.9l2.7-8.2l8.2,2.7
	l7.7-3.9l3.9,7.7l8.2,2.7l-2.7,8.2L153.2,310z"/>
<path class="st0" d="M345.9,134.3l-12.8,6.4l12.8,25.6V134.3z"/>
<path class="st0" d="M302.5,345.9l-6.4-12.8l-25.6,12.8H302.5z"/>
<path class="st0" d="M219.3,5.8h32.1l-25.6,12.8L219.3,5.8z"/>
<path class="st0" d="M136.1,276l-4.6,2.3l-12.9-4.3l-4.3,12.9l-4.6,2.3l-15.3-30.7l14.4-28.8l7.3,3.6l3.9,11.7l11.7-3.9l8.4,4.2
	l-7.7,15.5l6.8,13.6L136.1,276z"/>
<path class="st0" d="M140.7,273.7l-6.4-12.8l7.4-14.7l27.1,13.5L140.7,273.7z"/>
<path class="st0" d="M132.4,345.9l-6.4-12.8l-25.6,12.8H132.4z"/>
<path class="st0" d="M295.1,20.5L268,7l2.4-1.2h32.1L295.1,20.5z"/>
<path class="st0" d="M276.4,55.1l-15.5-7.7l-13.6,6.8l-1.5-3l-2.3-4.6l4.3-12.9l-12.9-4.3l-2.3-4.6l30.7-15.3l28.8,14.4l-3.6,7.3
	l-11.7,3.9l3.9,11.7L277,54L276.4,55.1z"/>
<path class="st0" d="M76.1,295.1L89.6,268l14,28l-12.8,6.4L76.1,295.1z"/>
<path class="st0" d="M229.7,157.9l3.6-7.3l11.7-3.9l-3.9-11.7l4.2-8.4l15.5,7.7l13.6-6.8l3.8,7.6l-4.3,12.9l12.9,4.3l2.3,4.6
	l-30.7,15.3L229.7,157.9z"/>
<path class="st0" d="M72.9,292.1l-7.3-3.6l-3.9-11.7l-11.7,3.9l-7.3-3.6l-1.1-0.6l7.7-15.5l-6.8-13.6l3-1.5l4.6-2.3l12.9,4.3
	l4.3-12.9l4.6-2.3l15.3,30.7L72.9,292.1z"/>
<path class="st0" d="M217.4,345.9l7.7-15.5l-8.4-4.2l-11.7,3.9l-3.9-11.7l-7.3-3.6l-14.4,28.8l1.2,2.4H217.4z"/>
<path class="st0" d="M275.6,56.6l-13.5,27.1l-14-28l12.8-6.4L275.6,56.6z"/>
<path class="st0" d="M55.9,326.1l-8.8-4.4l-9.4,3.1l-3.1-9.4l-8.8-4.4l4.4-8.8l-3.1-9.4l9.4-3.1l4.4-8.8l8.8,4.4l9.4-3.1l3.1,9.4
	l8.8,4.4l-4.4,8.8l3.1,9.4l-9.4,3.1L55.9,326.1z"/>
<path class="st0" d="M229.7,328l3.6-7.3l11.7-3.9l-3.9-11.7l4.2-8.4l15.5,7.7l13.6-6.8l3.8,7.6l-4.3,12.9l12.9,4.3l2.3,4.6
	l-30.7,15.3L229.7,328z"/>
<path class="st0" d="M153.2,140l-7.7,3.9l-2.7,8.2l-8.2-2.7l-7.7,3.9l-3.9-7.7l-8.2-2.7l2.7-8.2l-3.9-7.7l7.7-3.9l2.7-8.2l8.2,2.7
	l7.7-3.9l3.9,7.7l8.2,2.7l-2.7,8.2L153.2,140z"/>
<path class="st0" d="M8.2,264.5L37,278.9l-3.6,7.3l-11.7,3.9l3.9,11.7l-3.6,7.3l-0.6,1.1l-15.5-7.7v-36.8L8.2,264.5z"/>
<path class="st0" d="M18.6,211l-12.8,6.4v-32.1L18.6,211z"/>
<path class="st0" d="M280.8,55.9l4.4-8.8l-3.1-9.4l9.4-3.1l4.4-8.8l8.8,4.4l9.4-3.1l3.1,9.4l8.8,4.4l-4.4,8.8l3.1,9.4l-9.4,3.1
	L311,71l-8.8-4.4l-9.4,3.1l-3.1-9.4L280.8,55.9z"/>
<path class="st0" d="M20.5,311.7L7,338.8l-1.2-2.4v-32.1L20.5,311.7z"/>
<path class="st0" d="M106.3,225.2l-15.5-7.7l-13.6,6.8l-1.5-3l-2.3-4.6l4.3-12.9l-12.9-4.3l-2.3-4.6l30.7-15.3l28.8,14.4l-3.6,7.3
	l-11.7,3.9l3.9,11.7l-3.6,7.3L106.3,225.2z"/>
<path class="st0" d="M342.4,8.2L328,37l-7.3-3.6l-3.9-11.7L305,25.5l-7.3-3.6l-1.1-0.6l7.7-15.5h36.8L342.4,8.2z"/>
<path class="st0" d="M40.9,248.1l6.4,12.8L40,275.6l-27.1-13.5L40.9,248.1z"/>
<path class="st0" d="M49.3,345.9h32.1l2.4-1.2l-27.1-13.5L49.3,345.9z"/>
<path class="st0" d="M59.7,157.9l3.6-7.3l11.7-3.9L71.1,135l4.2-8.4l15.5,7.7l13.6-6.8l3.8,7.6l-4.3,12.9l12.9,4.3l2.3,4.6
	l-30.7,15.3L59.7,157.9z"/>
<path class="st0" d="M105.6,226.7L92,253.8l-14-28l12.8-6.4L105.6,226.7z"/>
<path class="st0" d="M41.7,238.2l-3.9-7.7l-8.2-2.7l2.7-8.2l-3.9-7.7l7.7-3.9l2.7-8.2l8.2,2.7l7.7-3.9l3.9,7.7l8.2,2.7l-2.7,8.2
	l3.9,7.7l-7.7,3.9l-2.7,8.2l-8.2-2.7L41.7,238.2z"/>
<path class="st0" d="M110.7,225.9l4.4-8.8l-3.1-9.4l9.4-3.1l4.4-8.8l8.8,4.4l9.4-3.1l3.1,9.4l8.8,4.4l-4.4,8.8l3.1,9.4l-9.4,3.1
	l-4.4,8.8l-8.8-4.4l-9.4,3.1l-3.1-9.4L110.7,225.9z"/>
<path class="st0" d="M19.4,212.5l3.8,7.6l-4.3,12.9l12.9,4.3l2.3,4.6L5.8,256.2v-36.8L19.4,212.5z"/>
<path class="st0" d="M345.9,185.4l-1.2-2.4l-13.5,27.1l14.7,7.4V185.4z"/>
<path class="st0" d="M304.4,345.9h36.8L327,317.6l-4.6,2.3l-4.3,12.9l-12.9-4.3l-7.6,3.8L304.4,345.9z"/>
<path class="st0" d="M47.4,345.9l7.7-15.5l-8.4-4.2l-11.7,3.9L31,318.4l-7.3-3.6L9.4,343.6l1.2,2.4H47.4z"/>
</svg>
