<?xml version="1.0" encoding="utf-8"?>
<!-- Generator: Adobe Illustrator 22.0.1, SVG Export Plug-In . SVG Version: 6.00 Build 0)  -->
<svg version="1.1" xmlns="http://www.w3.org/2000/svg" xmlns:xlink="http://www.w3.org/1999/xlink" x="0px" y="0px" width="311.8px"
	 height="311.8px" viewBox="0 0 311.8 311.8" style="enable-background:new 0 0 311.8 311.8;" xml:space="preserve">
<style type="text/css">
	.st0{fill:#010101;}
</style>
<g id="Layer_1">
</g>
<g id="cut">
	<path class="st0" d="M160.5,14.2l6.9,13.6l-4.3,11.6l-6.4,2.8l-16-11.9l5.3-15.9l5-0.3h7.3L160.5,14.2z"/>
	<path class="st0" d="M203,289.6l-3.4-10.7l9.6-8.4l1-0.1l14.7,9.2l-10.6,5.9L203,289.6z"/>
	<path class="st0" d="M153.9,189.9l-2.3-11.3l0.8-1.9l10-4.6l6.1,5.8l-2.9,9.6L153.9,189.9z"/>
	<path class="st0" d="M262,61.9l-4.6,4.3L246.2,66l-6-13.8l6.3-5.2l8.4,6.9L262,61.9z"/>
	<path class="st0" d="M49.2,62.7l11.1,7.6l-1.1,3.5l-17.8,7.6l-4.8-1.9l5.7-8.8L49.2,62.7z"/>
	<path class="st0" d="M186.1,87.9l0.8,10.2l-6.3,6.7l-17.2-9.1l-1-3.3l1.5-1.7L186.1,87.9z"/>
	<path class="st0" d="M72.7,270.7l5.1-17.8l15-4l5,9.6l-4,9.4l-17.5,5.3l-1.8-1.2L72.7,270.7z"/>
	<path class="st0" d="M206.2,221.9l0.4-0.9l20.5-1.5l2.1,1.4l1.5,4.8l-4.2,10.4l-14.7,5.1l-0.9-0.3L206.2,221.9z"/>
	<path class="st0" d="M94.7,144.8l2.9-10.5L110,131l4.3,4.9l-3.5,13.1L94.7,144.8z"/>
	<path class="st0" d="M125.2,80.1l-1.1,0l-9.5-9.1l3.5-6.2l6.4-2.7l8.7,5.5l-0.4,5.2L125.2,80.1z"/>
	<path class="st0" d="M213.8,26.6l-7.4,15.1l-13.3,6.6l-4.3-21.9l5.9-6.8l9.8,2.8L213.8,26.6z"/>
	<path class="st0" d="M229.6,123.7l-1.8-1l-0.6-5.4l5.1-7.5l2.8-0.1l4,10.8l-1.7,2.2L229.6,123.7z"/>
	<path class="st0" d="M138.5,229.7l9.9-0.2l1.2,11l-2.9,2.3l-5.7,0.3l-4.4-10.4L138.5,229.7z"/>
	<path class="st0" d="M66.9,222.4l-6.7,2l-12.6-7.8l-0.2-1l6.4-10.6l2.5-0.5l12.5,7.2L66.9,222.4z"/>
	<path class="st0" d="M104.3,192.8l-2-1.7l-0.5-13.9l10.5-4.1l5.3,11.2l-0.6,5.5l-0.5,0.8L104.3,192.8z"/>
	<path class="st0" d="M166.4,270.1l7.6-13.2l10.6,0.9l1,15.8l-8.3,4.7L166.4,270.1z"/>
	<path class="st0" d="M154.1,86.2l-12.3-12.6l0.5-6.2l10-4.6l8.1,8.8l-2.8,13.4l-1.4,1.7L154.1,86.2z"/>
	<path class="st0" d="M276.1,215.8l-12.3,8.3l-8.1-16.8l14.7-6.9l5.4,2L276.1,215.8z"/>
	<path class="st0" d="M142,129.9l21.4,0l1,1.5l-3.4,16.9l-15.7-4.9l-4.1-12L142,129.9z"/>
	<path class="st0" d="M73.5,104.5l-5.8,13.8l-8.9-3.8l-4.1-7l0.8-3.7l11.7-7l2.5,1.3L73.5,104.5z"/>
	<path class="st0" d="M76,38.8l10.7,7.8l-3.9,15.1l-9.6-0.2l-0.7-20.1l1.8-1.3L76,38.8z"/>
	<path class="st0" d="M125.8,294.4l1.5-6.2L146,282l5.4,15.6l-12.9-0.4L125.8,294.4z"/>
	<path class="st0" d="M20.7,113.3l5.4,1.8l11.2,18.1l-8.8,6.8l-12.7-5.7l1.6-10.7L20.7,113.3z"/>
	<path class="st0" d="M170.2,244.8l7.2-12.3l6.9,2.6l5.4,13.2l-5.2,3.9l-9.7-0.8L170.2,244.8z"/>
	<path class="st0" d="M230.6,276.4l0.9-19.2l4.1-3.9l12.6,0.8l4.3,5.5l-10.1,9.4L230.6,276.4z"/>
	<path class="st0" d="M164.8,68.2l-9.2-10l3.5-10.6l6.2-2.7l16.8,9.6L177.7,65L164.8,68.2z"/>
	<path class="st0" d="M17.2,185l5.7-1.1l7.3,11.8l-4.6,11.6l-1.6,0.7l-4.4-11.2L17.2,185z"/>
	<path class="st0" d="M182.3,204.1l0-0.7l7.8-12.4l9.9-0.2l3.7,6.1l-4.3,11.4L182.3,204.1z"/>
	<path class="st0" d="M142.5,199.7l0.4,3.3l-9.7,5.4l-3.8-2.2l-1.7-8.4l0.4-0.6L142.5,199.7z"/>
	<path class="st0" d="M205.2,134.7l-2.9,11.8l-8.9,1.7l-3.7-2.6l-1-10.5l3.8-4.8l5.9-0.4L205.2,134.7z"/>
	<path class="st0" d="M217.6,85.9l-9.9-7.7l2.2-6.8l8.9-3.5l7.4,7.5L217.6,85.9z"/>
	<path class="st0" d="M115.7,232.9l-2.5,4.8l-12.4,0.2l-1.3-9.8l1.9-4l1.2-0.7l7.7,0.9L115.7,232.9z"/>
	<path class="st0" d="M263.6,142.2l-11.8,0.2l-4.2-11.2l2.2-2.8l10-2.1L263.6,142.2z"/>
	<path class="st0" d="M255.4,256.8l-4.1-5.2l2.8-15.8l8.6-5.3l8.8,7.4l-7.2,10.2L255.4,256.8z"/>
	<path class="st0" d="M46.3,156.2l9.5,7.8l0.2,9.5l-9.2,3.2l-13.6-5.8l-1.7-10.1L46.3,156.2z"/>
	<path class="st0" d="M271.7,151.2l7.8-0.9l2.9,1.9l4.9,18.7l-2.6,1.6l-17.3,0.6l-1.3-2.9L271.7,151.2z"/>
	<path class="st0" d="M79.7,191l-12-4.7l-3.3-8.3l18.2-7.1l1.8,1.8L79.7,191z"/>
	<path class="st0" d="M46,245.4l9.1-3.4l17.3,8.6l0.2,0.4l-4.6,16.2l-12.3-9.7L46,245.4z"/>
	<path class="st0" d="M153.2,107.2l-12.2,7.6l-4.8-6.5l2.6-8.7l13.5-4.8l2,0.4l0.9,3.1L153.2,107.2z"/>
	<path class="st0" d="M103.2,287.5l3.2-7.3l10.1-2.5l6.8,9.6l-1.4,6.2l-9.5-2.4L103.2,287.5z"/>
	<path class="st0" d="M153,268.8l-6.1,4.7l-10-10.9l0.8-7.4l3.2-2.9l6.8-0.4L153,268.8z"/>
	<path class="st0" d="M216.5,255.5l-6.4,11.6l-1,0.1L195.9,251l14-6.9l0.9,0.3L216.5,255.5z"/>
	<path class="st0" d="M243.6,192.3l5.1,12.7l-17.2,12.1l-2.2-1.4l-4.2-18.5L243.6,192.3z"/>
	<path class="st0" d="M120.3,51.5l-7.1,3l-10-11.2l8.6-11.1l11,5.8L120.3,51.5z"/>
	<path class="st0" d="M282.7,92.6l-0.8,0.2L265,86.5l-1.3-13.6l4.1-3.8l8.6,11.1L282.7,92.6z"/>
	<path class="st0" d="M70.8,129.7l12.7,18.5l-3.2,5.3l-12-1.7l-5-9.5l7.3-12.7L70.8,129.7z"/>
	<path class="st0" d="M188.3,166.5l-7.9,6.4l-6.3-0.4l-7.3-7l1.3-9.1l16.8-4.6l4.4,3.1L188.3,166.5z"/>
	<path class="st0" d="M126.1,180.3l-5.4-11.2l1.6-4.4l11.6-1.4l9.2,9.8l-0.8,2L126.1,180.3z"/>
	<path class="st0" d="M32.8,85.7l5.7,2.3l9.3,14l-1,4.3l-18.7,4.1l-5.8-1.9l4.2-11.8L32.8,85.7z"/>
	<path class="st0" d="M245.7,186.6l-7.3-11.9l9.7-7.3l11.6,5.5l1.3,2.9l-0.3,0.7L245.7,186.6z"/>
	<path class="st0" d="M158.2,220.5l-0.2-9.4l15.3-1.1l-1.9,12.4L158.2,220.5z"/>
	<path class="st0" d="M96.6,213.8l-1.3,0.8l-12.8-9l1.7-8.3l12.8,0.2l2,1.7L96.6,213.8z"/>
	<path class="st0" d="M283.1,197l-6.2,2.2l-5.4-2l-5.2-19.3l0.3-0.8l19.3-0.6L283.1,197z"/>
	<path class="st0" d="M190.5,81.1l-7.5-14l4.2-10l5.3-2.1l10.9,13.8l-2.5,7.7L190.5,81.1z"/>
	<path class="st0" d="M75.6,229.9l15.7-1.6l1.5,11.6l-1.8,3.3L76.6,247l-0.2-0.3L75.6,229.9z"/>
	<path class="st0" d="M14.2,160l13.6,1.4l1.7,10.1l-7.3,9.1l-5.7,1.1l-2-10.8L14.2,160z"/>
	<path class="st0" d="M224.2,31.7l4.9,17.4l-7.9,5.5l-11.1-11.4l7.3-14.9l3.4,1.6L224.2,31.7z"/>
	<path class="st0" d="M202,108.5l0.2,0.8l-4.4,11.9l-5.7,0.4l-5.6-10.1l0.2-1.8l5.4-5.8L202,108.5z"/>
	<path class="st0" d="M120.1,267.4l-4-7.8l4.6-7.5l10.9,2.4l-0.8,7.3L120.1,267.4z"/>
	<path class="st0" d="M60.5,178.7l3.6,9.1l-8.6,13l-2.7,0.5l-7.4-8.1l2.4-13.4l9.2-3.2L60.5,178.7z"/>
	<path class="st0" d="M25.4,211.3l1.7-0.7l16.3,6l0.2,1l-7.1,14.8l-6.4-10.1L25.4,211.3z"/>
	<path class="st0" d="M152.1,46.1l-3.1,9.4l-10,4.6l-10.4-6.6l2.7-14.5l7-3.1L152.1,46.1z"/>
	<path class="st0" d="M88.4,78l-0.5,3l-13.5,7.9l-2.2-1.1l-2.8-10.4l0.9-2.8l3.1-1.9l8.6,0.2L88.4,78z"/>
	<path class="st0" d="M155.7,297.6l-5.8-16.8l0.5-1.3l7.2-5.6l6.1-0.7l11.5,8.6l-1.5,14.6l-8.8,1.1L155.7,297.6z"/>
	<path class="st0" d="M191.2,18.6l-4.8,5.5l-15.6,2.3l-6-12l13.4,0.8L191.2,18.6z"/>
	<path class="st0" d="M252,92.2l-7.6,0.9l-3.5-14.9l5.5-3.7l9.3,0.2l1.1,12L252,92.2z"/>
	<path class="st0" d="M133.5,155.9l-13.7,1.7l-2.9-6.6l3.7-13.9l16.1-3.5l3.9,11.4L133.5,155.9z"/>
	<path class="st0" d="M138.1,158.4l6.6-10.3l14,4.3l2.1,3.2l-1.2,8.5l-11.2,5.2L138.1,158.4z"/>
	<path class="st0" d="M241.7,148.5l-10.9,0.7l-0.5-13.4l9.6-1.3l4.1,10.8L241.7,148.5z"/>
	<path class="st0" d="M50.7,141.4l-7.4-7.7l12-12.5l10.5,4.5l1.1,1.7l-7.3,12.8L50.7,141.4z"/>
	<path class="st0" d="M221.6,197.4l0.8,0.6l4.1,18.1l-20.1,1.5l-3.4-6.9l4.9-12.8L221.6,197.4z"/>
	<path class="st0" d="M223.8,149.5l-2.2,2.4l-5.3,1l-6.4-5l2.7-11l8.4-2.4l2.3,1.3L223.8,149.5z"/>
	<path class="st0" d="M292.4,117.8l-8.5,5.1l-14.4-6.4l0.1-0.4l13.8-14.4l3.2-0.6l3.4,8.2L292.4,117.8z"/>
	<path class="st0" d="M231.8,173.4l-8.8,5l-9.4-5.4l3.7-11.3l6.3-1.2L231.8,173.4z"/>
	<path class="st0" d="M177.4,296l1.5-13.9l9.1-5.1l9.1,2.6l3.4,10.8l-11.3,3.7L177.4,296z"/>
	<path class="st0" d="M110.8,108.7l-3.2,5.5l-10-2.1l-1.8-5.8l4.9-6.2l7.7,2.9L110.8,108.7z"/>
	<path class="st0" d="M204.7,173.3l-11.4-6.6l1-10.9l9.8-1.9l7.7,6l-3.7,11.3L204.7,173.3z"/>
	<path class="st0" d="M251.2,235.3l-2.8,15.8l-12.6-0.8l-6.4-13.1l4.2-10.4L251.2,235.3z"/>
	<path class="st0" d="M111.4,93.7l-6.8-2.5l-2.4-7.6l0.5-2.7l6.4-2.8l8.4,8.1L111.4,93.7z"/>
	<path class="st0" d="M96.4,68l-6.5-5.1l3.6-13.8l4.7-0.4l9,10.1l-3.5,6.2L96.4,68z"/>
	<path class="st0" d="M194.9,247.2l-0.4,0l-5.9-14.3l14.7-9.2l4.3,17.3L194.9,247.2z"/>
	<path class="st0" d="M112.9,160.5l-1.9,5.1l-12.3,4.8l-9.7-2.4l-1.7-1.8l-1.6-9.5l3.2-5.2l4.2-1.8l16.9,4.3L112.9,160.5z"/>
	<path class="st0" d="M260.9,227.6l-8.6,5.3l-17.6-8.6l-1.5-4.8l17.2-12.1l2.8,1l8.1,16.8L260.9,227.6z"/>
	<path class="st0" d="M269,197.8l-14.4,6.8l-2.7-1l-5-12.4l0.2-1l16.7-11.3L269,197.8z"/>
	<path class="st0" d="M186.7,228.8l-6.9-2.6l-0.9-1.8l2.2-14.5l0.2-0.3l16.3,4l2.9,5.9l-0.3,0.8L186.7,228.8z"/>
	<path class="st0" d="M213.3,93.2l-8.1,8.3l-9.9-4.6l-0.7-8.7l0.1-0.3l8.8-3.9l9.5,7.4L213.3,93.2z"/>
	<path class="st0" d="M246.1,103l6.8-0.8l6.3,11.8l0,0.3l-1.9,2l-9.2,2l-4.7-12.8L246.1,103z"/>
	<path class="st0" d="M179.8,179.4l6,9.3l-7.3,11.6l-7.5-11l3.1-10.3L179.8,179.4z"/>
	<path class="st0" d="M168.9,121.2l11.6-7.3l6.4,11.5l-4.2,5.3l-13.7-2.2l-0.8-1.3L168.9,121.2z"/>
	<path class="st0" d="M86.9,120.2l-11.8,1.6l-0.2-0.1l-0.9-1.3l5.5-13.1l9,1l2,6.2L86.9,120.2z"/>
	<path class="st0" d="M28,208.2l4.6-11.6l11-1.6l7.4,8.1l-6.7,11.1L28,208.2z"/>
	<path class="st0" d="M105.4,23.5l1.6,4l-9.4,12L92,40L83.7,34l10.4-6.2L105.4,23.5z"/>
	<path class="st0" d="M86.4,145.2l-11.6-17l13.2-1.8l5.3,6.8l-2.9,10.3L86.4,145.2z"/>
	<path class="st0" d="M209.9,126.9l-5.8-4.1l3.9-10.6l9,6.1l0.7,6.4L209.9,126.9z"/>
	<path class="st0" d="M297.2,144.5l-11,1.9l-2.9-1.9l3.9-15.9l7-4.2l2.3,9.9L297.2,144.5z"/>
	<path class="st0" d="M269.5,141.6l-4.3-17.4l2.3-2.4l13.9,6.2l-3.4,13.9l-6.9,0.8L269.5,141.6z"/>
	<path class="st0" d="M162.7,266.9l-5.2,0.6l-5.2-17.1l3.5-2.7l9.2,0.9l4.6,6.5L162.7,266.9z"/>
	<path class="st0" d="M290.9,199.2l-5.8-1.9l2.8-20.5l2.9-1.8l5.5,0.8l-1.7,11.9L290.9,199.2z"/>
	<path class="st0" d="M111.3,214.6l-7.2-0.8l2.1-12.7l10.9-2l1.9,9.5L111.3,214.6z"/>
	<path class="st0" d="M258.6,98.2l4.9-5.6l15.1,5.6l-12.9,13.4L258.6,98.2z"/>
	<path class="st0" d="M78.6,195.2l-1.9,9.6l-6.4,3.9l-11.9-6.9l7.9-11.8l12.1,4.8L78.6,195.2z"/>
	<path class="st0" d="M163.7,120.5l-0.8,6.3l-20.1,0l-0.1-7.5l13.5-8.5L163.7,120.5z"/>
	<path class="st0" d="M186.4,83.8l-0.2,0.3l-23.4,3l3.1-14.9l12.6-3.1L186.4,83.8z"/>
	<path class="st0" d="M190.8,49.1l-6,2.4l-18.1-10.3l4.5-12.1l15.6-2.3l4.3,21.9L190.8,49.1z"/>
	<path class="st0" d="M50.8,144.6l9.6-1.3l5.4,10.3l-8.7,8.6l-9.4-7.7L50.8,144.6z"/>
	<path class="st0" d="M129.8,113.2l4.7,6.3l0.1,6.6l-0.7,1.3l-14,3.1l-4-4.5l-1-6.9l3.7-6.3L129.8,113.2z"/>
	<path class="st0" d="M67.5,155.3l12.9,1.9l1.8,10.4l-19.6,7.7l-3.4-2.1l-0.2-9.4L67.5,155.3z"/>
	<path class="st0" d="M203.2,176.9l-3,9.5l-10.3,0.2l-6.7-10.4l7.9-6.4L203.2,176.9z"/>
	<path class="st0" d="M40.6,135.5l8,8.4l-3.1,10l-14.7,4.6l-0.7-16.3l8.8-6.8L40.6,135.5z"/>
	<path class="st0" d="M64,90.8L52,98l-8.2-12.3l17-7.3L64,90.8z"/>
	<path class="st0" d="M80.5,275.9l14.5-4.4l9,7.6l-3.2,7.4L90.2,282L80.5,275.9z"/>
	<path class="st0" d="M234.9,80.1l3.3,14l-2.9,2.6l-3.5,0.1l-8.4-5.7l-0.3-1.7l7.8-9.5L234.9,80.1z"/>
	<path class="st0" d="M149.6,89.4l-12.5,4.5l-7-8.1l8.2-8L149.6,89.4z"/>
	<path class="st0" d="M167.1,151.6l-2.2-3.3l3.1-15.6l14.3,2.3l1.1,12L167.1,151.6z"/>
	<path class="st0" d="M157.1,226.8l13.7,1.9l0.8,1.6l-6.3,10.7l-8.2-0.8l-1.3-11.8L157.1,226.8z"/>
	<path class="st0" d="M250.7,162.6l-2-9l2.7-3.8l13.3-0.2l1.7,1.1l-4.9,17L250.7,162.6z"/>
	<path class="st0" d="M132.1,248.6l-9.7-2.2l-2.3-5.1l2.5-4.7l7.6-1.5l4.7,10.9L132.1,248.6z"/>
	<path class="st0" d="M91,86.6l2.6,8.2l-4.7,5.9l-8-0.9l-3.1-5.5L91,86.6z"/>
	<path class="st0" d="M66.8,45.7l0.6,16.9l-3.7,2.3l-10.1-6.9l6.2-6.5L66.8,45.7z"/>
	<path class="st0" d="M38.1,234.8l7.8-16.1l13.2,8.2l-5,12.5l-10,3.7l-3.1-4L38.1,234.8z"/>
	<path class="st0" d="M43.2,192.9l-11,1.6l-7.3-11.8l7.3-9.1l13.6,5.8L43.2,192.9z"/>
	<path class="st0" d="M72,229.5l1,18.4l-16.3-8.1l4.7-11.7l6.6-2L72,229.5z"/>
	<path class="st0" d="M218.6,56.6l-1.3,5.4l-10.3,4L196,52l0.2-0.3l11.8-5.9L218.6,56.6z"/>
	<path class="st0" d="M297.4,148.6l0.2,3.7v11.4l-0.8,7.7l-5.3-0.7l-5.3-20.1L297.4,148.6z"/>
	<path class="st0" d="M131.9,98l-2.2,7.6l-10.1-0.5l-2.5-5.8l7.1-8.8l1.2,0L131.9,98z"/>
	<path class="st0" d="M283.2,218.2l-4.9-2.5l-0.4-13.4l6.2-2.2l5.8,1.9l-2.9,8.3L283.2,218.2z"/>
	<path class="st0" d="M15.5,136.9l12,5.4l0.7,16.3l-14-1.4l0-0.6v-10.2L15.5,136.9z"/>
	<path class="st0" d="M172.9,203.5l-15.5,1.2l-2.5-2.9l-0.5-3.9l1-2.5l11-2.4l6.7,9.7l0,0.6L172.9,203.5z"/>
	<path class="st0" d="M121.5,228.6l-4.7-7.6l7.2-5.6l3.9,2.3l2.1,6.7l-1.8,2.8L121.5,228.6z"/>
	<path class="st0" d="M116.2,249.5l-4.5,7.4l-8.8-1.3l-4.4-8.5l1.7-3l13.5-0.2L116.2,249.5z"/>
	<path class="st0" d="M79.2,209.6l13.6,9.7l-2.2,4.7l-15.4,1.6l-3.6-3l1.6-9.3L79.2,209.6z"/>
	<path class="st0" d="M234.7,176.6l7.6,12.5l-0.2,0.9l-17,4.5l-0.8-0.6l0.3-11.9l9.6-5.5L234.7,176.6z"/>
	<path class="st0" d="M227.7,278.1l-16-10l6.4-11.6l11.2,0.7l-0.9,20.5L227.7,278.1z"/>
	<path class="st0" d="M273.2,235.5l-8.5-7.2l0.4-2.3l12.3-8.3l4.9,2.5l-4.1,8L273.2,235.5z"/>
	<path class="st0" d="M40.7,131.4l-1.5-0.1l-10.4-16.8l19.2-4.2l4.9,8.4L40.7,131.4z"/>
	<path class="st0" d="M218.3,254.5l-5.8-11.1l14.7-5.2l6.4,13.1l-4.1,3.9L218.3,254.5z"/>
	<path class="st0" d="M121.6,271.6l11.6-6l10.7,11.7l-0.4,1.2l-16.7,5.5l-6.1-8.7L121.6,271.6z"/>
	<path class="st0" d="M230.4,155.7l12.4-0.8l2,8.9l-8.8,6.6l-0.4-0.1l-7.7-12L230.4,155.7z"/>
	<path class="st0" d="M166.6,118.1l-7.4-9.5l2.1-9.7l17.7,9.3l-0.3,2.2L166.6,118.1z"/>
	<path class="st0" d="M211.6,107.3l-0.2-0.7l7-7.2l7.6,5.2l-5.7,8.5L211.6,107.3z"/>
	<path class="st0" d="M148.6,212.2l0.2,7.9l-1.1,1.3l-8.8,0.1l-2-6.4l9.6-5.3L148.6,212.2z"/>
	<path class="st0" d="M92,123.7l3.9-5.9l11.2,2.4l1,6.8L96.8,130L92,123.7z"/>
	<path class="st0" d="M111.4,261.7l4.4,8.5l-0.9,3.8l-9.1,2.2l-8.1-6.9l4-9.2L111.4,261.7z"/>
	<path class="st0" d="M144.5,193.5l-16.2-2.9l0.5-5l14.5-4.8l2.1,10.2L144.5,193.5z"/>
	<path class="st0" d="M194.4,252.5l12.9,15.9l-9.4,8.2l-8.9-2.6l-1.1-16.9l6.1-4.6L194.4,252.5z"/>
	<path class="st0" d="M84,191.7l-0.3-0.5l4.2-16.7l8.9,2.2l0.5,15.1L84,191.7z"/>
	<path class="st0" d="M243.6,44.6l-6,5l-5.6-1.2l-4.2-14.7l8.3,4.9L243.6,44.6z"/>
	<path class="st0" d="M221.2,193.9l-13,0.5l-3.9-6.5l3.1-9.7l3.7-2.2l10.3,5.9L221.2,193.9z"/>
	<path class="st0" d="M235.8,71.4l-4.8-0.2l-8-8.1l1.2-5.1l7.1-4.9l5,1l5.7,13.1L235.8,71.4z"/>
	<path class="st0" d="M139.9,15.1l-4.4,13.2l-7.8,3.4l-13.2-7l-1.6-4l13.2-4.2L139.9,15.1z"/>
</g>
</svg>
