<?xml version="1.0" encoding="utf-8"?>
<!-- Generator: Adobe Illustrator 22.0.1, SVG Export Plug-In . SVG Version: 6.00 Build 0)  -->
<svg version="1.1" id="Layer_1" xmlns="http://www.w3.org/2000/svg" xmlns:xlink="http://www.w3.org/1999/xlink" x="0px" y="0px"
	 viewBox="0 0 30 30" style="enable-background:new 0 0 30 30;" xml:space="preserve">
<style type="text/css">
	.st0{fill:#464B4E;}
</style>
<g>
	<path class="st0" d="M2.4,25.3c0-6.9,0-13.7,0-20.6c0,0,0-0.1,0-0.1c0.3-1.3,1.3-2.2,2.7-2.2c6.6,0,13.2,0,19.8,0
		c1.5,0,2.7,1.2,2.7,2.7c0,6.6,0,13.2,0,19.8c0,1.2-0.8,2.2-1.9,2.6c-0.1,0-0.3,0.1-0.4,0.1c-6.9,0-13.7,0-20.6,0c0,0-0.1,0-0.1,0
		c-1-0.2-1.7-0.8-2.1-1.8C2.5,25.6,2.4,25.4,2.4,25.3z M15.4,11.3c-0.7-0.2-1.4,0.3-1.6,1c-0.1,0.3-0.2,0.7-0.3,1
		c-0.2,1-0.5,1.9-0.8,2.9c0-0.1-0.1-0.2-0.1-0.2c-0.2-0.9-0.5-1.9-0.7-2.8c-0.1-0.4-0.2-0.7-0.4-1.1c-0.1-0.3-0.3-0.4-0.6-0.5
		c-0.6-0.2-1.5-0.1-1.8,0.9c-0.2,0.7-0.4,1.5-0.6,2.2c-0.1,0.5-0.3,1-0.4,1.5c-0.2-0.8-0.4-1.6-0.6-2.3c-0.1-0.6-0.3-1.1-0.4-1.7
		c-0.2-0.7-1-1.1-1.6-0.9c0,0.1,0,0.1,0,0.2c0.2,0.8,0.4,1.5,0.6,2.3c0.4,1.6,0.8,3.1,1.2,4.7c0,0.1,0,0.2,0.2,0.2
		c0.8,0.1,1.3-0.3,1.6-1.1c0.2-0.7,0.4-1.5,0.6-2.3c0.2-0.7,0.3-1.3,0.5-2c0-0.1,0.1-0.2,0.2-0.3c0.1,0.1,0.2,0.2,0.2,0.3
		c0.1,0.2,0.1,0.4,0.1,0.5c0.3,1.2,0.6,2.4,0.9,3.6c0.2,0.8,0.6,1.1,1.5,1.1c0.2,0,0.3,0,0.3-0.2c0.5-1.9,1-3.7,1.5-5.6
		C15.1,12.4,15.2,11.8,15.4,11.3z M24.6,11.3c-0.7-0.1-1.4,0-1.9,0.6c-0.4,0.5-0.8,1-1.1,1.6c-0.4,0.6-0.4,0.6-0.8,0
		c-0.4-0.6-0.8-1.1-1.2-1.7c-0.4-0.6-1.1-0.5-1.7-0.5c0.1,0.1,0.1,0.2,0.2,0.3c0.7,1.1,1.5,2.2,2.2,3.2c0.1,0.1,0.1,0.3,0,0.4
		c-0.7,1.1-1.5,2.2-2.2,3.2c0,0.1-0.1,0.1-0.2,0.3c0.7,0,1.4,0,1.9-0.6c0.4-0.6,0.8-1.2,1.3-1.8c0.2-0.3,0.3-0.3,0.5,0
		c0.3,0.4,0.5,0.8,0.8,1.2c0.2,0.3,0.4,0.6,0.7,0.8c0.5,0.4,1,0.4,1.6,0.4c-0.1-0.1-0.1-0.2-0.2-0.3c-0.7-1.1-1.5-2.2-2.2-3.3
		c-0.1-0.1-0.1-0.2,0-0.3c0.2-0.3,0.4-0.6,0.6-0.9C23.4,13.1,24,12.2,24.6,11.3z M15.9,18.7c0.2,0,0.3,0,0.5,0
		c0.5-0.1,0.8-0.3,0.8-0.9c0-0.2,0-0.4,0-0.5c0-1.5,0-3,0-4.5c0-0.1,0-0.1,0-0.2c-0.3,0.2-0.5,0.3-0.8,0.4c-0.4,0.2-0.5,0.4-0.5,0.8
		c0,1.5,0,3.1,0,4.6C15.9,18.5,15.9,18.6,15.9,18.7z M17.2,11.3c-0.9-0.1-1.4,0.4-1.3,1.5c0.3-0.1,0.5-0.2,0.8-0.4
		C17.1,12.2,17.3,11.8,17.2,11.3z"/>
</g>
</svg>
